# xmcd
#
# Track frame offsets:
# 150
# 14252
# 27417
# 38055
# 51270
# 64740
# 75360
# 88137
# 100432
# 114432
# 126510
# 137585
# 149885
# 165120
#
# Disc length: 2357 seconds
#
#
# Revision: 6
# Processed by: cddbd v1.5.2PL0 Copyright (c) Steve Scherf et al.
# Submitted via: FreeRIP 2.943 
#
DISCID=bd09330e
DTITLE=Sampler - That´s Soul - Vol. 1 - That´s Soul  - vol. 1
DYEAR=1967
DGENRE=Soul
TTITLE0=Wilson Picket - Mustang Sally
TTITLE1=Carla Thomas - Baby
TTITLE2=Arthur Conley - Sweet Soul Music
TTITLE3=Percy Sledge - When A Man Loves A Woman
TTITLE4=Sam and Dave - I Got Everything I Need
TTITLE5=Ben E. King - What Is Soul
TTITLE6=Aretha Franklin - I Never Loved A Man The Way I Loved You
TTITLE7=Otis Redding - Fa-Fa-Fa-Fa-Fa (Sad Song)
TTITLE8=Eddie Floyd - Knock On Wood
TTITLE9=Solomon Burke - Keep Looking
TTITLE10=Wilson Picket - Land Of 1000 Dances
TTITLE11=Joe Tex - Papa Was Too
TTITLE12=Percy Sledge - Warm And Tender Love
TTITLE13=The Drifters - Baby What I Mean
EXTD=
EXTT0=
EXTT1=
EXTT2=
EXTT3=
EXTT4=
EXTT5=
EXTT6=
EXTT7=
EXTT8=
EXTT9=
EXTT10=
EXTT11=
EXTT12=
EXTT13=
PLAYORDER=
